<svg width="35" height="30" viewBox="0 0 35 30" fill="none" xmlns="http://www.w3.org/2000/svg">
<path d="M10.0026 3.1875H3.2526C3.9285 9.64741 6.97469 15.6276 11.8026 19.9725C16.6694 24.346 22.9895 26.7521 29.5326 26.7225H31.2651V20.4L25.5501 18.42L23.6601 21.615L22.3326 24L19.9251 22.605C15.6146 20.103 11.9413 16.6376 9.1926 12.48L7.5501 9.8925L10.2951 8.4525L12.5451 7.2825L10.0926 3.1875H10.0026ZM10.0926 0.375C10.5778 0.378627 11.054 0.506726 11.4755 0.747036C11.897 0.987346 12.2498 1.33182 12.5001 1.7475L14.8626 5.8425C15.063 6.1698 15.1937 6.53491 15.2466 6.91503C15.2994 7.29514 15.2733 7.68207 15.1698 8.05163C15.0664 8.42119 14.8878 8.76542 14.6452 9.06281C14.4026 9.36021 14.1013 9.60436 13.7601 9.78L11.5101 10.95C14.0219 14.7429 17.3801 17.9008 21.3201 20.175L23.3001 17.0025C23.5318 16.6032 23.8583 16.267 24.2507 16.0237C24.6431 15.7804 25.0894 15.6375 25.5501 15.6075C25.8643 15.6068 26.1764 15.6601 26.4726 15.765L32.3001 17.745C32.8308 17.955 33.285 18.3214 33.6025 18.7956C33.92 19.2698 34.0857 19.8294 34.0776 20.4V26.8125C34.0776 27.5584 33.7813 28.2738 33.2538 28.8012C32.7264 29.3287 32.011 29.625 31.2651 29.625H29.5776C22.3563 29.6269 15.3895 26.9575 10.0184 22.1306C4.64734 17.3037 1.25167 10.6605 0.4851 3.48C0.447549 3.08754 0.49227 2.69156 0.616405 2.31735C0.740541 1.94315 0.941362 1.59895 1.20604 1.30675C1.47072 1.01454 1.79343 0.780758 2.15357 0.620324C2.51371 0.459891 2.90335 0.376337 3.2976 0.375H10.0926Z" fill="#D52B1E"/>
</svg>
