<svg width="16" height="14" viewBox="0 0 16 14" fill="none" xmlns="http://www.w3.org/2000/svg">
<path d="M14.9289 1.75119C14.8744 1.70683 14.8101 1.67604 14.7413 1.66136C14.6725 1.64668 14.6013 1.64853 14.5334 1.66674L10.2623 3.00008L5.98225 0.826745C5.92375 0.799669 5.86005 0.785645 5.79559 0.785645C5.73112 0.785645 5.66743 0.799669 5.60892 0.826745L1.16448 2.64452C1.08261 2.67815 1.01265 2.73546 0.96356 2.8091C0.914468 2.88274 0.888478 2.96935 0.888922 3.05786V12.1601C0.889284 12.2329 0.907521 12.3045 0.942029 12.3686C0.976537 12.4326 1.02626 12.4873 1.08683 12.5277C1.14739 12.568 1.21695 12.5929 1.28939 12.6001C1.36183 12.6073 1.43492 12.5966 1.50225 12.569L5.77781 10.8134L10.04 13.0001C10.1033 13.0325 10.1734 13.0493 10.2445 13.049C10.2887 13.0557 10.3336 13.0557 10.3778 13.049L14.8223 11.6623C14.9159 11.633 14.9972 11.5735 15.0535 11.4931C15.1098 11.4127 15.1379 11.3159 15.1334 11.2179V2.11119C15.1311 2.0391 15.1112 1.96865 15.0756 1.90593C15.04 1.84321 14.9897 1.7901 14.9289 1.75119V1.75119ZM14.2223 10.889L10.5245 12.0445V11.0267H9.81337V11.9156L6.08003 10.0001V9.24897H5.36892V10.0134L1.77781 11.4934V3.35119L5.36892 1.87119V2.91563H6.08003V1.87563L9.81337 3.78674V4.72008H10.5245V3.88897L14.2223 2.71563V10.889Z" fill="#868282"/>
<path d="M9.81335 5.69336H10.5245V7.38669H9.81335V5.69336Z" fill="#868282"/>
<path d="M9.81335 8.36011H10.5245V10.0534H9.81335V8.36011Z" fill="#868282"/>
<path d="M5.3689 3.91553H6.08001V5.60886H5.3689V3.91553Z" fill="#868282"/>
<path d="M5.3689 6.61328H6.08001V8.27995H5.3689V6.61328Z" fill="#868282"/>
</svg>
