<svg width="15" height="15" viewBox="0 0 15 15" fill="none" xmlns="http://www.w3.org/2000/svg">
<path d="M7.53292 3.75838C7.53292 3.64563 7.48729 3.5375 7.40607 3.45777C7.32485 3.37804 7.2147 3.33325 7.09984 3.33325C6.98497 3.33325 6.87482 3.37804 6.7936 3.45777C6.71238 3.5375 6.66675 3.64563 6.66675 3.75838V8.43481C6.66677 8.50975 6.68697 8.58335 6.72531 8.64815C6.76364 8.71295 6.81874 8.76666 6.88502 8.80383L9.91664 10.5043C10.0161 10.5571 10.1327 10.5696 10.2414 10.5391C10.3502 10.5087 10.4425 10.4376 10.4986 10.3413C10.5547 10.2449 10.5702 10.1308 10.5417 10.0233C10.5132 9.91591 10.4431 9.82366 10.3463 9.76632L7.53292 8.18824V3.75838Z" fill="#868282"/>
<path fill-rule="evenodd" clip-rule="evenodd" d="M6.3667 8.43476L6.3667 3.75833C6.3667 3.5642 6.44531 3.37917 6.58339 3.24363C6.72128 3.10827 6.90714 3.0332 7.09979 3.0332C7.29244 3.0332 7.47829 3.10827 7.61618 3.24363C7.75426 3.37917 7.83287 3.5642 7.83287 3.75833V8.01249L10.4991 9.50807C10.6627 9.60495 10.7827 9.76188 10.8316 9.94647C10.8806 10.1312 10.8538 10.3272 10.7578 10.4921C10.6619 10.6569 10.5051 10.7767 10.3223 10.828C10.1397 10.8792 9.94374 10.8583 9.77599 10.7693L9.76978 10.766L6.73825 9.06545C6.62631 9.00268 6.53256 8.91158 6.46705 8.80084C6.40151 8.69004 6.36674 8.56367 6.3667 8.43476ZM6.88498 8.80378L9.91659 10.5043C10.0161 10.5571 10.1326 10.5696 10.2414 10.5391C10.3501 10.5086 10.4424 10.4376 10.4985 10.3412C10.5546 10.2448 10.5701 10.1307 10.5416 10.0233C10.5132 9.91586 10.443 9.82361 10.3462 9.76627L7.53287 8.18819V3.75833C7.53287 3.64558 7.48725 3.53745 7.40603 3.45772C7.32481 3.37799 7.21465 3.3332 7.09979 3.3332C6.98492 3.3332 6.87477 3.37799 6.79355 3.45772C6.71233 3.53745 6.6667 3.64558 6.6667 3.75833V8.43476C6.66672 8.5097 6.68693 8.5833 6.72526 8.6481C6.76359 8.7129 6.81869 8.76661 6.88498 8.80378Z" fill="#868282"/>
<path d="M7.50009 13.8889C9.19453 13.8889 10.8196 13.2157 12.0177 12.0176C13.2159 10.8195 13.889 9.19441 13.889 7.49997C13.889 5.80553 13.2159 4.1805 12.0177 2.98235C10.8196 1.7842 9.19453 1.11108 7.50009 1.11108C5.80566 1.11108 4.18062 1.7842 2.98247 2.98235C1.78432 4.1805 1.11121 5.80553 1.11121 7.49997C1.11121 9.19441 1.78432 10.8195 2.98247 12.0176C4.18062 13.2157 5.80566 13.8889 7.50009 13.8889V13.8889ZM13.0904 7.49997C13.0904 8.98261 12.5014 10.4045 11.453 11.4529C10.4046 12.5013 8.98273 13.0903 7.50009 13.0903C6.01746 13.0903 4.59555 12.5013 3.54717 11.4529C2.49879 10.4045 1.90982 8.98261 1.90982 7.49997C1.90982 6.01734 2.49879 4.59543 3.54717 3.54705C4.59555 2.49867 6.01746 1.9097 7.50009 1.9097C8.98273 1.9097 10.4046 2.49867 11.453 3.54705C12.5014 4.59543 13.0904 6.01734 13.0904 7.49997V7.49997Z" fill="#868282"/>
<path fill-rule="evenodd" clip-rule="evenodd" d="M12.2298 12.2297C10.9754 13.4841 9.27405 14.1888 7.50005 14.1888C5.72604 14.1888 4.0247 13.4841 2.77029 12.2297C1.51588 10.9753 0.811157 9.27393 0.811157 7.49992C0.811157 5.72592 1.51588 4.02458 2.77029 2.77017C4.0247 1.51576 5.72604 0.811035 7.50005 0.811035C9.27405 0.811035 10.9754 1.51576 12.2298 2.77017C13.4842 4.02458 14.1889 5.72592 14.1889 7.49992C14.1889 9.27393 13.4842 10.9753 12.2298 12.2297ZM11.2408 11.2407C12.233 10.2486 12.7903 8.90299 12.7903 7.49992C12.7903 6.09686 12.233 4.75125 11.2408 3.75913C10.2487 2.76701 8.90312 2.20965 7.50005 2.20965C6.09698 2.20965 4.75137 2.76701 3.75925 3.75913C2.76714 4.75125 2.20977 6.09686 2.20977 7.49992C2.20977 8.90299 2.76714 10.2486 3.75925 11.2407C4.75137 12.2328 6.09698 12.7902 7.50005 12.7902C8.90312 12.7902 10.2487 12.2328 11.2408 11.2407ZM12.0177 12.0176C10.8195 13.2157 9.19448 13.8888 7.50005 13.8888C5.80561 13.8888 4.18057 13.2157 2.98242 12.0176C1.78427 10.8194 1.11116 9.19436 1.11116 7.49992C1.11116 5.80549 1.78427 4.18045 2.98242 2.9823C4.18057 1.78415 5.80561 1.11104 7.50005 1.11104C9.19448 1.11104 10.8195 1.78415 12.0177 2.9823C13.2158 4.18045 13.8889 5.80549 13.8889 7.49992C13.8889 9.19436 13.2158 10.8194 12.0177 12.0176ZM11.453 11.4528C12.5013 10.4045 13.0903 8.98256 13.0903 7.49992C13.0903 6.01729 12.5013 4.59538 11.453 3.547C10.4046 2.49862 8.98268 1.90965 7.50005 1.90965C6.01741 1.90965 4.5955 2.49862 3.54712 3.547C2.49874 4.59538 1.90977 6.01729 1.90977 7.49992C1.90977 8.98256 2.49874 10.4045 3.54712 11.4528C4.5955 12.5012 6.01741 13.0902 7.50005 13.0902C8.98268 13.0902 10.4046 12.5012 11.453 11.4528Z" fill="#868282"/>
</svg>
