<svg width="24" height="24" viewBox="0 0 24 24" fill="none" xmlns="http://www.w3.org/2000/svg">
<g clip-path="url(#clip0_733_12)">
<path d="M21.71 11.0576L12.1169 1.46454C11.9971 1.34542 11.835 1.27856 11.6661 1.27856C11.4971 1.27856 11.335 1.34542 11.2152 1.46454L1.62216 11.0576C1.51739 11.1799 1.46264 11.3373 1.46886 11.4982C1.47508 11.6592 1.5418 11.8119 1.6557 11.9258C1.7696 12.0397 1.92228 12.1064 2.08324 12.1126C2.24419 12.1188 2.40156 12.0641 2.52391 11.9593L11.6629 2.82035L20.8018 11.9657C20.9242 12.0705 21.0815 12.1252 21.2425 12.119C21.4034 12.1128 21.5561 12.0461 21.67 11.9322C21.7839 11.8183 21.8506 11.6656 21.8569 11.5046C21.8631 11.3437 21.8083 11.1863 21.7036 11.064L21.71 11.0576Z" fill="#AD0202"/>
<path d="M18.0582 20.4651H14.8605V14.0698H8.46515V20.4651H5.26747V11.5116L3.9884 12.7907V20.4651C3.9884 20.8044 4.12316 21.1297 4.36303 21.3696C4.60291 21.6094 4.92824 21.7442 5.26747 21.7442H9.74422V15.3489H13.5814V21.7442H18.0582C18.3974 21.7442 18.7227 21.6094 18.9626 21.3696C19.2025 21.1297 19.3372 20.8044 19.3372 20.4651V12.6372L18.0582 11.3582V20.4651Z" fill="#AD0202"/>
</g>
<defs>
<clipPath id="clip0_733_12">
<rect width="23.0233" height="23.0233" fill="white" transform="translate(0.151245)"/>
</clipPath>
</defs>
</svg>
