<svg width="38" height="38" viewBox="0 0 38 38" fill="none" xmlns="http://www.w3.org/2000/svg">
<path fill-rule="evenodd" clip-rule="evenodd" d="M11.4416 0.776504C13.3966 0.686504 14.02 0.666504 19 0.666504C23.98 0.666504 24.6033 0.688171 26.5566 0.776504C28.51 0.864837 29.8433 1.1765 31.01 1.62817C32.2316 2.08984 33.34 2.8115 34.2566 3.74484C35.19 4.65984 35.91 5.7665 36.37 6.98984C36.8233 8.1565 37.1333 9.48984 37.2233 11.4398C37.3133 13.3982 37.3333 14.0215 37.3333 18.9998C37.3333 23.9798 37.3116 24.6032 37.2233 26.5582C37.135 28.5082 36.8233 29.8415 36.37 31.0082C35.9099 32.2317 35.1888 33.3402 34.2566 34.2565C33.34 35.1898 32.2316 35.9098 31.01 36.3698C29.8433 36.8232 28.51 37.1332 26.56 37.2232C24.6033 37.3132 23.98 37.3332 19 37.3332C14.02 37.3332 13.3966 37.3115 11.4416 37.2232C9.49163 37.1348 8.15829 36.8232 6.99163 36.3698C5.76816 35.9098 4.65966 35.1886 3.74329 34.2565C2.81059 33.341 2.08882 32.233 1.62829 31.0098C1.17663 29.8432 0.866626 28.5098 0.776626 26.5598C0.686626 24.6015 0.666626 23.9782 0.666626 18.9998C0.666626 14.0198 0.688293 13.3965 0.776626 11.4432C0.864959 9.48984 1.17663 8.1565 1.62829 6.98984C2.0895 5.76664 2.81182 4.65869 3.74496 3.74317C4.66003 2.81067 5.76741 2.08891 6.98996 1.62817C8.15663 1.1765 9.48996 0.866504 11.44 0.776504H11.4416ZM26.4083 4.0765C24.475 3.98817 23.895 3.96984 19 3.96984C14.105 3.96984 13.525 3.98817 11.5916 4.0765C9.80329 4.15817 8.83329 4.4565 8.18663 4.70817C7.33163 5.0415 6.71996 5.4365 6.07829 6.07817C5.47003 6.66992 5.00193 7.39031 4.70829 8.1865C4.45663 8.83317 4.15829 9.80317 4.07663 11.5915C3.98829 13.5248 3.96996 14.1048 3.96996 18.9998C3.96996 23.8948 3.98829 24.4748 4.07663 26.4082C4.15829 28.1965 4.45663 29.1665 4.70829 29.8132C5.00163 30.6082 5.46996 31.3298 6.07829 31.9215C6.66996 32.5298 7.39163 32.9982 8.18663 33.2915C8.83329 33.5432 9.80329 33.8415 11.5916 33.9232C13.525 34.0115 14.1033 34.0298 19 34.0298C23.8966 34.0298 24.475 34.0115 26.4083 33.9232C28.1966 33.8415 29.1666 33.5432 29.8133 33.2915C30.6683 32.9582 31.28 32.5632 31.9216 31.9215C32.53 31.3298 32.9983 30.6082 33.2916 29.8132C33.5433 29.1665 33.8416 28.1965 33.9233 26.4082C34.0116 24.4748 34.03 23.8948 34.03 18.9998C34.03 14.1048 34.0116 13.5248 33.9233 11.5915C33.8416 9.80317 33.5433 8.83317 33.2916 8.1865C32.9583 7.3315 32.5633 6.71984 31.9216 6.07817C31.3298 5.46996 30.6095 5.00186 29.8133 4.70817C29.1666 4.4565 28.1966 4.15817 26.4083 4.0765V4.0765ZM16.6583 24.6515C17.9661 25.1959 19.4223 25.2694 20.7782 24.8594C22.1341 24.4494 23.3056 23.5814 24.0926 22.4036C24.8797 21.2258 25.2334 19.8113 25.0934 18.4017C24.9534 16.9921 24.3283 15.6748 23.325 14.6748C22.6854 14.0356 21.912 13.5462 21.0605 13.2417C20.209 12.9373 19.3007 12.8254 18.4008 12.9142C17.5009 13.003 16.6319 13.2901 15.8563 13.7551C15.0807 14.22 14.4179 14.8511 13.9155 15.6029C13.4131 16.3548 13.0836 17.2087 12.9508 18.1031C12.818 18.9976 12.8852 19.9103 13.1475 20.7757C13.4098 21.6411 13.8608 22.4375 14.4678 23.1077C15.0749 23.7779 15.823 24.3051 16.6583 24.6515ZM12.3366 12.3365C13.2117 11.4615 14.2505 10.7673 15.3938 10.2938C16.5371 9.8202 17.7625 9.57646 19 9.57646C20.2375 9.57646 21.4628 9.8202 22.6061 10.2938C23.7494 10.7673 24.7883 11.4615 25.6633 12.3365C26.5383 13.2115 27.2325 14.2504 27.706 15.3937C28.1796 16.537 28.4233 17.7623 28.4233 18.9998C28.4233 20.2373 28.1796 21.4627 27.706 22.606C27.2325 23.7493 26.5383 24.7881 25.6633 25.6632C23.8961 27.4304 21.4992 28.4232 19 28.4232C16.5007 28.4232 14.1039 27.4304 12.3366 25.6632C10.5694 23.8959 9.57658 21.4991 9.57658 18.9998C9.57658 16.5006 10.5694 14.1037 12.3366 12.3365V12.3365ZM30.5133 10.9798C30.7301 10.7753 30.9037 10.5293 31.0238 10.2565C31.1439 9.98362 31.208 9.68945 31.2123 9.39139C31.2167 9.09332 31.1612 8.79742 31.0491 8.52119C30.937 8.24496 30.7707 7.99402 30.5599 7.78324C30.3491 7.57245 30.0982 7.4061 29.8219 7.29403C29.5457 7.18197 29.2498 7.12646 28.9517 7.13081C28.6537 7.13515 28.3595 7.19926 28.0867 7.31933C27.8138 7.4394 27.5678 7.613 27.3633 7.82984C26.9655 8.25155 26.7477 8.81171 26.7561 9.39139C26.7646 9.97107 26.9986 10.5246 27.4086 10.9346C27.8185 11.3445 28.3721 11.5786 28.9517 11.587C29.5314 11.5955 30.0916 11.3777 30.5133 10.9798V10.9798Z" fill="#AD0202"/>
</svg>
