<svg width="32" height="26" viewBox="0 0 32 26" fill="none" xmlns="http://www.w3.org/2000/svg">
<path d="M30.625 0.625H1.375C0.752734 0.625 0.25 1.12773 0.25 1.75V24.25C0.25 24.8723 0.752734 25.375 1.375 25.375H30.625C31.2473 25.375 31.75 24.8723 31.75 24.25V1.75C31.75 1.12773 31.2473 0.625 30.625 0.625ZM29.2188 4.52031V22.8438H2.78125V4.52031L1.81094 3.76445L3.19258 1.98906L4.69727 3.15977H27.3062L28.8109 1.98906L30.1926 3.76445L29.2188 4.52031V4.52031ZM27.3062 3.15625L16 11.9453L4.69375 3.15625L3.18906 1.98555L1.80742 3.76094L2.77773 4.5168L14.7871 13.8543C15.1325 14.1226 15.5574 14.2683 15.9947 14.2683C16.4321 14.2683 16.857 14.1226 17.2023 13.8543L29.2188 4.52031L30.1891 3.76445L28.8074 1.98906L27.3062 3.15625Z" fill="#D52B1E"/>
</svg>
