<svg width="24" height="24" viewBox="0 0 24 24" fill="none" xmlns="http://www.w3.org/2000/svg">
<g clip-path="url(#clip0_733_44)">
<path d="M6.92028 4.59667H2.60342C3.03568 8.728 4.98382 12.5525 8.07144 15.3313C11.1839 18.1283 15.2258 19.6671 19.4104 19.6481H20.5184V15.6047L16.8634 14.3384L15.6547 16.3817L14.8057 17.907L13.2661 17.0148C10.5093 15.4147 8.16013 13.1985 6.40225 10.5395L5.35182 8.88475L7.10734 7.96382L8.5463 7.21556L6.97784 4.59667H6.92028ZM6.97784 2.79797C7.28814 2.80029 7.59266 2.88222 7.86224 3.0359C8.13182 3.18959 8.35744 3.4099 8.51752 3.67574L10.0284 6.29463C10.1566 6.50395 10.2402 6.73745 10.274 6.98055C10.3078 7.22364 10.2911 7.4711 10.2249 7.70745C10.1587 7.94379 10.0445 8.16394 9.88938 8.35413C9.73425 8.54433 9.54155 8.70047 9.32333 8.8128L7.88438 9.56105C9.49078 11.9868 11.6384 14.0063 14.1582 15.4608L15.4245 13.4318C15.5727 13.1764 15.7815 12.9615 16.0324 12.8059C16.2834 12.6503 16.5688 12.5589 16.8634 12.5397C17.0644 12.5392 17.264 12.5733 17.4534 12.6404L21.1803 13.9067C21.5197 14.041 21.8102 14.2753 22.0132 14.5786C22.2163 14.8819 22.3222 15.2397 22.3171 15.6047V19.7057C22.3171 20.1827 22.1276 20.6402 21.7903 20.9775C21.4529 21.3149 20.9954 21.5044 20.5184 21.5044H19.4392C14.8209 21.5056 10.3654 19.7984 6.9304 16.7114C3.4954 13.6244 1.32375 9.37592 0.833504 4.78373C0.80949 4.53274 0.838092 4.27949 0.917481 4.04018C0.99687 3.80086 1.1253 3.58073 1.29457 3.39386C1.46384 3.20698 1.67023 3.05747 1.90055 2.95487C2.13087 2.85226 2.38006 2.79883 2.6322 2.79797H6.97784Z" fill="black"/>
</g>
<defs>
<clipPath id="clip0_733_44">
<rect width="23.0233" height="23.0233" fill="white" transform="translate(0.523315 0.639526)"/>
</clipPath>
</defs>
</svg>
