<svg width="23" height="23" viewBox="0 0 23 23" fill="none" xmlns="http://www.w3.org/2000/svg">
<g clip-path="url(#clip0_733_3)">
<path d="M18.7173 8.94387C18.8797 8.94389 19.0364 9.00351 19.1577 9.11141C19.2791 9.21931 19.3566 9.36799 19.3756 9.52925L19.3802 9.60682V14.9104C19.3802 15.5907 19.1187 16.245 18.6498 16.738C18.181 17.231 17.5405 17.5248 16.861 17.5589L16.7284 17.5622H7.4472C6.76685 17.5622 6.11253 17.3007 5.61958 16.8318C5.12662 16.3629 4.83274 15.7225 4.79872 15.043L4.79541 14.9104V9.60682C4.7956 9.43784 4.8603 9.27532 4.97629 9.15245C5.09229 9.02959 5.25082 8.95565 5.4195 8.94574C5.58819 8.93584 5.75428 8.99072 5.88386 9.09917C6.01343 9.20763 6.09671 9.36146 6.11666 9.52925L6.1213 9.60682V14.9104C6.12136 15.2448 6.24777 15.5668 6.47521 15.8119C6.70264 16.0571 7.0143 16.2072 7.34775 16.2323L7.4472 16.2363H16.7284C17.0628 16.2362 17.3849 16.1098 17.63 15.8824C17.8751 15.6549 18.0253 15.3433 18.0504 15.0098L18.0543 14.9104V9.60682C18.0543 9.43099 18.1242 9.26237 18.2485 9.13804C18.3728 9.01372 18.5415 8.94387 18.7173 8.94387ZM7.40013 6.06469L11.6191 1.8457C11.7333 1.73156 11.8852 1.66299 12.0463 1.65286C12.2074 1.64273 12.3667 1.69173 12.4942 1.79068L12.5565 1.8457L16.7755 6.06469C16.8944 6.184 16.9634 6.34408 16.9686 6.51244C16.9737 6.68079 16.9146 6.84479 16.8032 6.97113C16.6918 7.09746 16.5365 7.17666 16.3688 7.19263C16.2011 7.2086 16.0337 7.16015 15.9004 7.05712L15.8381 7.0021L12.7508 3.91476V12.2586C12.7507 12.421 12.6911 12.5777 12.5832 12.699C12.4753 12.8204 12.3266 12.8979 12.1654 12.9169L12.0878 12.9215C11.9254 12.9215 11.7687 12.8619 11.6474 12.754C11.526 12.6461 11.4485 12.4974 11.4295 12.3362L11.4249 12.2586V3.91476L8.33753 7.0021C8.22338 7.11624 8.0715 7.18481 7.91038 7.19494C7.74927 7.20507 7.59 7.15607 7.46244 7.05712L7.40013 7.0021C7.28598 6.88794 7.21741 6.73606 7.20728 6.57495C7.19715 6.41384 7.24616 6.25456 7.3451 6.12701L7.40013 6.06469L11.6191 1.8457L7.40013 6.06469V6.06469Z" fill="black"/>
</g>
<defs>
<clipPath id="clip0_733_3">
<rect width="22" height="22" fill="white" transform="translate(0.744141 0.325562)"/>
</clipPath>
</defs>
</svg>
