<svg width="24" height="24" viewBox="0 0 24 24" fill="none" xmlns="http://www.w3.org/2000/svg">
<path d="M17.1379 11.7581C17.1164 11.7503 17.0966 11.7382 17.0796 11.7225C17.0627 11.7067 17.0489 11.6876 17.0391 11.6663L15.8938 9.23089C15.8836 9.20967 15.8775 9.18655 15.876 9.16288C15.8745 9.1392 15.8775 9.11544 15.8849 9.093C15.8923 9.07056 15.904 9.04987 15.9192 9.03216C15.9344 9.01446 15.9529 9.00007 15.9735 8.98986L17.7928 8.06714C17.8344 8.04555 17.8812 8.04375 17.9245 8.05814C17.9678 8.07433 18.0042 8.10671 18.0233 8.14988L19.1685 10.5853C19.1807 10.6105 19.1859 10.6375 19.1859 10.6644C19.1859 10.6842 19.1824 10.704 19.1772 10.7238C19.1616 10.7688 19.1304 10.8065 19.0888 10.8263L17.2678 11.7491C17.2297 11.7706 17.1812 11.7742 17.1379 11.7581V11.7581ZM19.5359 10.4018L18.3906 7.96641C18.3803 7.94519 18.3743 7.92207 18.3727 7.8984C18.3712 7.87472 18.3742 7.85096 18.3817 7.82852C18.3891 7.80608 18.4008 7.78539 18.416 7.76768C18.4312 7.74997 18.4496 7.73559 18.4703 7.72538L20.2913 6.80265C20.3329 6.78107 20.3797 6.77927 20.423 6.79366C20.4663 6.80985 20.5027 6.84223 20.5217 6.88539L21.667 9.32082C21.6871 9.36378 21.69 9.41324 21.675 9.4584C21.6601 9.50355 21.6286 9.54074 21.5873 9.56185L19.7663 10.4846C19.746 10.4952 19.7239 10.5014 19.7012 10.503C19.6785 10.5045 19.6558 10.5013 19.6343 10.4936C19.6128 10.4859 19.593 10.4738 19.5761 10.4581C19.5592 10.4423 19.5455 10.4232 19.5359 10.4018Z" fill="#666766"/>
<path d="M3.49156 16.9149L2.18341 14.1305C1.93737 13.6071 1.81262 13.0513 1.81262 12.4757C1.81262 11.3407 2.31682 10.2651 3.16236 9.59781C3.18661 9.57802 3.21434 9.55824 3.24033 9.54025L3.31656 9.48449C3.35121 9.45931 3.38413 9.43413 3.42052 9.41074C3.52101 9.34599 3.62324 9.28663 3.722 9.23627C3.8225 9.18591 3.92819 9.13914 4.03908 9.09777C4.07893 9.08338 4.11878 9.07079 4.15863 9.0582L4.24699 9.02942C4.27818 9.01863 4.30937 9.00963 4.33882 9.00064C5.93633 8.56356 7.63779 9.39995 8.38456 10.99L8.52664 11.2922L20.5945 5.18022C20.6361 5.15863 20.6829 5.15684 20.7262 5.17123C20.7695 5.18741 20.8059 5.21979 20.825 5.26296L21.6965 7.11921C21.7166 7.16217 21.7195 7.21162 21.7045 7.25678C21.6896 7.30194 21.6581 7.33913 21.6168 7.36023L9.5489 13.4722L9.69098 13.7744C9.93701 14.2978 10.0618 14.8536 10.0618 15.4292C10.0618 16.5641 9.55756 17.6398 8.71203 18.3071C8.68777 18.3269 8.66005 18.3466 8.63406 18.3646L8.55609 18.4204C8.52317 18.4456 8.48852 18.4708 8.45387 18.4923C8.25947 18.6201 8.05202 18.7251 7.83531 18.8053C7.79546 18.8197 7.75734 18.8323 7.71749 18.8449L7.62566 18.8737C7.59621 18.8845 7.56502 18.8934 7.53556 18.9006C5.93979 19.3395 4.23833 18.5031 3.49156 16.9149V16.9149ZM6.54102 13.4992L6.76453 12.9092C6.94646 12.4289 6.9274 11.9055 6.71082 11.4433C6.3487 10.6716 5.50317 10.2651 4.70441 10.4756C4.69055 10.4792 4.67842 10.4828 4.66456 10.4882L4.62644 10.5008C4.59872 10.5097 4.571 10.5169 4.54328 10.5277C4.48263 10.5511 4.42372 10.5763 4.36481 10.6069C4.3059 10.6375 4.24873 10.6698 4.19675 10.704C4.17076 10.7202 4.1465 10.7382 4.11011 10.767L4.09106 10.7813C4.08066 10.7885 4.06853 10.7975 4.05987 10.8047C3.63364 11.1465 3.38067 11.6861 3.38067 12.2491C3.38067 12.5261 3.43958 12.7941 3.5574 13.0441C3.77398 13.5064 4.15863 13.8427 4.63684 13.9884L5.22248 14.1683C5.26926 14.1827 5.30738 14.2168 5.32817 14.2618C5.34896 14.3068 5.35069 14.3589 5.33337 14.4057L5.10985 14.9957C4.92793 15.4759 4.94698 15.9994 5.16357 16.4616C5.52569 17.2333 6.37122 17.6398 7.16997 17.4293C7.18383 17.4257 7.1977 17.4203 7.21156 17.4167L7.24101 17.4077C7.27047 17.3987 7.30165 17.3897 7.33111 17.3789C7.39175 17.3556 7.45066 17.3304 7.50957 17.2998C7.56848 17.2692 7.62566 17.2369 7.67764 17.2027C7.7019 17.1865 7.72442 17.1703 7.74695 17.1541L7.81452 17.1037C8.24075 16.762 8.49372 16.2224 8.49372 15.6594C8.49437 15.3838 8.4339 15.1118 8.31699 14.8644C8.10041 14.4021 7.71576 14.0658 7.23755 13.9201L6.65191 13.7402C6.62897 13.7331 6.60771 13.7212 6.58951 13.7051C6.5713 13.689 6.55656 13.6691 6.54622 13.6467C6.53457 13.622 6.52863 13.5949 6.52889 13.5675C6.52889 13.5423 6.53409 13.5208 6.54102 13.4992V13.4992Z" fill="black"/>
<path d="M10.3615 13.5855L8.9373 10.5547C8.91651 10.5116 8.91477 10.463 8.92863 10.418C8.94423 10.3731 8.97542 10.3353 9.017 10.3155L9.87293 9.88203C9.8934 9.87159 9.91565 9.86545 9.93841 9.86396C9.96117 9.86248 9.98399 9.86567 10.0056 9.87335C10.0271 9.88104 10.047 9.89307 10.0641 9.90876C10.0812 9.92445 10.0951 9.94348 10.1051 9.96477L11.5293 12.9956C11.5415 13.0207 11.5467 13.0477 11.5467 13.0747C11.5467 13.0945 11.5432 13.1143 11.538 13.1341C11.5224 13.179 11.4912 13.2168 11.4496 13.2366L10.5937 13.6701C10.5071 13.7114 10.4031 13.6755 10.3615 13.5855ZM12.3749 12.5657L10.9506 9.53488C10.9298 9.49171 10.9281 9.44315 10.942 9.39818C10.9576 9.35321 10.9888 9.31544 11.0303 9.29565L11.8863 8.86217C11.9067 8.85173 11.929 8.84559 11.9518 8.84411C11.9745 8.84262 11.9973 8.84581 12.0189 8.8535C12.0405 8.86118 12.0604 8.87321 12.0775 8.8889C12.0945 8.90459 12.1085 8.92362 12.1184 8.94491L13.5427 11.9757C13.5627 12.0187 13.5656 12.0681 13.5507 12.1133C13.5358 12.1584 13.5042 12.1956 13.463 12.2167L12.607 12.6502C12.5655 12.6718 12.5187 12.6736 12.4754 12.6592C12.4303 12.6412 12.3939 12.6088 12.3749 12.5657Z" fill="#666766"/>
</svg>
