<?xml version="1.0" encoding="utf-8"?>
<!-- Generator: Adobe Illustrator 24.0.3, SVG Export Plug-In . SVG Version: 6.00 Build 0)  -->
<svg version="1.1" id="Camada_1" xmlns="http://www.w3.org/2000/svg" xmlns:xlink="http://www.w3.org/1999/xlink" x="0px" y="0px"
	 viewBox="0 0 841.9 595.3" style="enable-background:new 0 0 841.9 595.3;" xml:space="preserve">
<style type="text/css">
	.st0{fill:#BA252D;}
	.st1{fill:#FFFFFF;}
</style>
<g>
	<path class="st1" d="M373.1,261.2c-0.6,0-1.1,0.1-1.7,0.2c-4.9-13.9-12.4-26.7-22-37.6c-0.6-0.7-1.3-1.4-1.9-2l-9.3-9.1L287,162.8
		c-13.5-13.2-35.1-13.2-48.6,0l-40.7,39.7l-34.4,33.6L125.5,273c-14,13.6-14,36.1,0,49.8l37.3,36.4c0,0,0.1,0,0.1,0.1l35.4,34.5
		c0,0,0.1,0,0.1,0l40.1,39.1c13.5,13.2,35.1,13.2,48.6,0l49.5-48.3l12.2-11.9c0.8-0.8,1.6-1.6,2.3-2.5c8.3-9.8,14.9-21,19.5-33.1
		c0.8,0.3,1.7,0.4,2.6,0.4c4.5,0,8.1-3.6,8.1-8.1v-60.2C381.2,264.8,377.5,261.2,373.1,261.2z M275.6,386.5c-4.1,0.6-8.3,1-12.5,1.1
		c-22.7-0.2-45.4-8.9-62.7-26.2c-10.2-10.2-17.5-22.3-21.7-35.2c12.9-12.6,35.6-27.1,71.3-25.9c3.8,0.1,7.5,0.6,11.1,1.3
		c-6.8,3.9-12.4,10.1-15.6,17.9c-7.4,18.5,1.7,39.5,20.2,46.8c18.5,7.4,39.5-1.7,46.8-20.2c1.9-4.9,2.7-9.9,2.5-14.9
		c6.2,5.7,10.9,10.9,13.9,14.4C322.5,355.2,305.2,377,275.6,386.5z M266.1,327.7c2.9-7.2,11-10.7,18.2-7.8c7.2,2.9,10.7,11,7.8,18.2
		c-2.9,7.2-11,10.7-18.2,7.8C266.8,343,263.3,334.9,266.1,327.7z M343.9,336.8c-9.5-11.7-45.5-51.9-93.3-53.6
		c-35.3-1.2-59.9,10.9-76,23.8c-2.6-25.9,6-52.6,25.8-72.4c17.2-17.2,39.7-26,62.3-26.2c50,0.9,90.2,40.7,90.2,89.6
		C353,311.9,349.7,325.1,343.9,336.8z"/>
	<path class="st1" d="M712.6,284.7c-4,0-7.6,1.6-10.3,4.1v-7.1h-5.3l0.4-17.5c0-2.4-0.7-3.5-2.1-3.5c-1.6,0-2.4,2.4-2.4,7.3
		c0,5.5-0.5,9.1-1.5,10.8c-0.8,1.2-2.4,1.8-4.8,1.8H541.6c-6,0-9.7-0.6-11-1.9c-1.3-1.3-2.1-4.7-2.3-10.3c-0.2-5.6-1-8.4-2.5-8.4
		c-1.5,0-2.3,1.3-2.3,4v3.3c0,3.9,0,7.5,0,11c0,1.3,0,2.5,0,3.5H389.2v-2.2c0-2.6-2.1-4.6-4.6-4.6h-3.4v49.7h3.4
		c2.6,0,4.6-2.1,4.6-4.6v-1.8h134.3c0,0.1,0,0.2,0,0.3v15.9c0,3,0.8,4.5,2.3,4.5c1.5,0,2.3-2.1,2.5-6.2c0.3-7.1,1.2-11.3,2.6-12.6
		c1.4-1.2,5.9-1.9,13.4-1.9h63.6c-1.3,1-3.1,2.6-5.3,4.8l-51.6,36.9c-12.9,9.2-19.6,13.8-20.3,13.8c-1.7,0-2.5-1.3-2.5-4
		c-0.2-5-0.3-8-0.5-8.9c-0.2-0.9-0.8-1.4-2-1.4c-1.5,0-2.3,1.8-2.3,5.5v11.3v14.1c0.2,2.9,0.2,8.1,0,15.6c0,10.2,0,18.1,0,23.4
		c0,6.2,0.8,9.3,2.4,9.3c1.3,0,1.9-2.7,1.9-8.1c0-4.5,1-8,2.9-10.3c1.9-2.4,7.9-7.3,18-14.9c22.2-17.1,39.1-30.3,50.7-39.5
		c17-13.3,27.5-21.3,31.5-24.2c19.8,17,37.9,33.2,54.2,48.9c3.2,3.2,5.2,5.9,6.1,8.2c0.8,2.3,1.3,6.5,1.3,12.7c0,2.7,0.8,4,2.5,4
		c1.5,0,2.3-1.2,2.3-3.5v-29.8c0,0,0,0,0-0.2c0-1.2,0-1.9,0-2.3v-3.5V376v-7.5c0.2-4-0.6-6-2.3-6c-1.5,0-2.3,1.2-2.3,3.5
		c0,7.1-0.1,1.6-0.4,3.1c-0.3,1.5-1,2.3-2.1,2.3c-3.5,0-11.8-5.8-24.9-17.3c-29.4-25.9-36-31.3-39.7-35.8l56.6-0.1
		c5,0,8,0.6,8.9,1.9c0.9,1.2,1.6,5.2,1.9,11.8c0.2,4,0.8,6,2,6c1.5,0,2.3-1,2.3-3c0-2.2,0-4.2,0-6v-10.3l0-0.3h4.9v-7.1
		c2.7,2.5,6.3,4.1,10.3,4.1c8.4,0,15.2-6.8,15.2-15.2C727.8,291.5,721,284.7,712.6,284.7z"/>
</g>
</svg>
