<?xml version="1.0" encoding="utf-8"?>
<!-- Generator: Adobe Illustrator 24.0.3, SVG Export Plug-In . SVG Version: 6.00 Build 0)  -->
<svg version="1.1" id="Camada_1" xmlns="http://www.w3.org/2000/svg" xmlns:xlink="http://www.w3.org/1999/xlink" x="0px" y="0px"
	 viewBox="0 0 841.9 595.3" style="enable-background:new 0 0 841.9 595.3;" xml:space="preserve">
<style type="text/css">
	.st0{fill:#BA252D;}
	.st1{fill:#FFFFFF;}
</style>
<g>
	<path d="M373.1,261.2c-0.6,0-1.1,0.1-1.7,0.2c-4.9-13.9-12.4-26.7-22-37.6c-0.6-0.7-1.3-1.4-1.9-2l-9.3-9.1L287,162.8
		c-13.5-13.2-35.1-13.2-48.6,0l-40.7,39.7l-34.4,33.6L125.5,273c-14,13.6-14,36.1,0,49.8l37.3,36.4c0,0,0.1,0,0.1,0.1l35.4,34.5
		c0,0,0.1,0,0.1,0l40.1,39.1c13.5,13.2,35.1,13.2,48.6,0l49.5-48.3l12.2-11.9c0.8-0.8,1.6-1.6,2.3-2.5c8.3-9.8,14.9-21,19.5-33.1
		c0.8,0.3,1.7,0.4,2.6,0.4c4.5,0,8.1-3.6,8.1-8.1v-60.2C381.2,264.8,377.5,261.2,373.1,261.2z M250.6,283.2
		c-35.3-1.2-59.9,10.9-76,23.8c-2.6-25.9,6-52.6,25.8-72.4c17.2-17.2,39.7-26,62.3-26.2c50,0.9,90.2,40.7,90.2,89.6
		c0,13.9-3.3,27.1-9.1,38.9C334.4,325.1,298.4,284.9,250.6,283.2z M292.1,338c-2.9,7.2-11,10.7-18.2,7.8c-7.2-2.9-10.7-11-7.8-18.2
		c2.9-7.2,11-10.7,18.2-7.8C291.4,322.7,295,330.8,292.1,338z M200.5,361.4c-10.2-10.2-17.5-22.3-21.7-35.2
		c12.9-12.6,35.6-27.1,71.3-25.9c3.8,0.1,7.5,0.6,11.1,1.3c-6.8,3.9-12.4,10.1-15.6,17.9c-7.4,18.5,1.7,39.5,20.2,46.8
		c18.5,7.4,39.5-1.7,46.8-20.2c1.9-4.9,2.7-9.9,2.5-14.9c6.2,5.7,10.9,10.9,13.9,14.4c-6.5,9.6-23.8,31.3-53.4,40.9
		c-4.1,0.6-8.3,1-12.5,1.1C240.4,387.4,217.8,378.7,200.5,361.4z"/>
	<path d="M712.6,284.7c-4,0-7.6,1.6-10.3,4.1v-7.1h-5.3l0.4-17.5c0-2.4-0.7-3.5-2.1-3.5c-1.6,0-2.4,2.4-2.4,7.3
		c0,5.5-0.5,9.1-1.5,10.8c-0.8,1.2-2.4,1.8-4.8,1.8H541.6c-6,0-9.7-0.6-11-1.9c-1.3-1.3-2.1-4.7-2.3-10.3c-0.2-5.6-1-8.4-2.5-8.4
		c-1.5,0-2.3,1.3-2.3,4v3.3c0,3.9,0,7.5,0,11c0,1.3,0,2.5,0,3.5H389.2v-2.2c0-2.6-2.1-4.6-4.6-4.6h-3.4v49.7h3.4
		c2.6,0,4.6-2.1,4.6-4.6v-1.8h134.3c0,0.1,0,0.2,0,0.3v15.9c0,3,0.8,4.5,2.3,4.5c1.5,0,2.3-2.1,2.5-6.2c0.3-7.1,1.2-11.3,2.6-12.6
		c1.4-1.2,5.9-1.9,13.4-1.9h63.6c-1.3,1-3.1,2.6-5.3,4.8l-51.6,36.9c-12.9,9.2-19.6,13.8-20.3,13.8c-1.7,0-2.5-1.3-2.5-4
		c-0.2-5-0.3-8-0.5-8.9c-0.2-0.9-0.8-1.4-2-1.4c-1.5,0-2.3,1.8-2.3,5.5v11.3v14.1c0.2,2.9,0.2,8.1,0,15.6c0,10.2,0,18.1,0,23.4
		c0,6.2,0.8,9.3,2.4,9.3c1.3,0,1.9-2.7,1.9-8.1c0-4.5,1-8,2.9-10.3c1.9-2.4,7.9-7.3,18-14.9c22.2-17.1,39.1-30.3,50.7-39.5
		c17-13.3,27.5-21.3,31.5-24.2c19.8,17,37.9,33.2,54.2,48.9c3.2,3.2,5.2,5.9,6.1,8.2c0.8,2.3,1.3,6.5,1.3,12.7c0,2.7,0.8,4,2.5,4
		c1.5,0,2.3-1.2,2.3-3.5v-29.8c0,0,0,0,0-0.2c0-1.2,0-1.9,0-2.3v-3.5V376v-7.5c0.2-4-0.6-6-2.3-6c-1.5,0-2.3,1.2-2.3,3.5
		c0,7.1-0.1,1.6-0.4,3.1c-0.3,1.5-1,2.3-2.1,2.3c-3.5,0-11.8-5.8-24.9-17.3c-29.4-25.9-36-31.3-39.7-35.8l56.6-0.1
		c5,0,8,0.6,8.9,1.9c0.9,1.2,1.6,5.2,1.9,11.8c0.2,4,0.8,6,2,6c1.5,0,2.3-1,2.3-3c0-2.2,0-4.2,0-6v-10.3l0-0.3h4.9v-7.1
		c2.7,2.5,6.3,4.1,10.3,4.1c8.4,0,15.2-6.8,15.2-15.2C727.8,291.5,721,284.7,712.6,284.7z"/>
</g>
<g>
	<path d="M722.2,53.8c-0.1,0-0.1,0-0.2,0c-0.6-1.6-1.4-3.1-2.5-4.3c-0.1-0.1-0.1-0.2-0.2-0.2l-1.1-1l-5.9-5.7c-1.6-1.5-4-1.5-5.6,0
		L702,47l-4,3.9l-4.4,4.2c-1.6,1.6-1.6,4.2,0,5.7l4.3,4.2c0,0,0,0,0,0l4.1,4c0,0,0,0,0,0l4.6,4.5c1.6,1.5,4,1.5,5.6,0L718,68
		l1.4-1.4c0.1-0.1,0.2-0.2,0.3-0.3c1-1.1,1.7-2.4,2.2-3.8c0.1,0,0.2,0,0.3,0c0.5,0,0.9-0.4,0.9-0.9v-6.9
		C723.2,54.2,722.7,53.8,722.2,53.8z M708.1,56.3c-4.1-0.1-6.9,1.3-8.8,2.7c-0.3-3,0.7-6.1,3-8.3c2-2,4.6-3,7.2-3
		c5.8,0.1,10.4,4.7,10.4,10.3c0,1.6-0.4,3.1-1,4.5C717.8,61.1,713.6,56.5,708.1,56.3z M712.9,62.6c-0.3,0.8-1.3,1.2-2.1,0.9
		c-0.8-0.3-1.2-1.3-0.9-2.1c0.3-0.8,1.3-1.2,2.1-0.9C712.8,60.9,713.2,61.8,712.9,62.6z M702.3,65.3c-1.2-1.2-2-2.6-2.5-4.1
		c1.5-1.5,4.1-3.1,8.2-3c0.4,0,0.9,0.1,1.3,0.1c-0.8,0.5-1.4,1.2-1.8,2.1c-0.8,2.1,0.2,4.5,2.3,5.4c2.1,0.8,4.5-0.2,5.4-2.3
		c0.2-0.6,0.3-1.1,0.3-1.7c0.7,0.7,1.3,1.3,1.6,1.7c-0.7,1.1-2.7,3.6-6.1,4.7c-0.5,0.1-1,0.1-1.4,0.1
		C706.9,68.3,704.3,67.3,702.3,65.3z"/>
	<path d="M761.3,56.5c-0.5,0-0.9,0.2-1.2,0.5v-0.8h-0.6l0-2c0-0.3-0.1-0.4-0.2-0.4c-0.2,0-0.3,0.3-0.3,0.8c0,0.6-0.1,1.1-0.2,1.2
		c-0.1,0.1-0.3,0.2-0.5,0.2h-16.7c-0.7,0-1.1-0.1-1.3-0.2c-0.2-0.1-0.2-0.5-0.3-1.2c0-0.6-0.1-1-0.3-1c-0.2,0-0.3,0.2-0.3,0.5v0.4
		c0,0.4,0,0.9,0,1.3c0,0.1,0,0.3,0,0.4h-15.5v-0.3c0-0.3-0.2-0.5-0.5-0.5h-0.4v5.7h0.4c0.3,0,0.5-0.2,0.5-0.5v-0.2h15.5c0,0,0,0,0,0
		v1.8c0,0.3,0.1,0.5,0.3,0.5c0.2,0,0.3-0.2,0.3-0.7c0-0.8,0.1-1.3,0.3-1.4c0.2-0.1,0.7-0.2,1.5-0.2h7.3c-0.2,0.1-0.4,0.3-0.6,0.5
		l-5.9,4.2c-1.5,1.1-2.3,1.6-2.3,1.6c-0.2,0-0.3-0.2-0.3-0.5c0-0.6,0-0.9-0.1-1c0-0.1-0.1-0.2-0.2-0.2c-0.2,0-0.3,0.2-0.3,0.6V67
		v1.6c0,0.3,0,0.9,0,1.8c0,1.2,0,2.1,0,2.7c0,0.7,0.1,1.1,0.3,1.1c0.1,0,0.2-0.3,0.2-0.9c0-0.5,0.1-0.9,0.3-1.2
		c0.2-0.3,0.9-0.8,2.1-1.7c2.6-2,4.5-3.5,5.8-4.6c2-1.5,3.2-2.5,3.6-2.8c2.3,2,4.4,3.8,6.2,5.6c0.4,0.4,0.6,0.7,0.7,0.9
		c0.1,0.3,0.1,0.7,0.1,1.5c0,0.3,0.1,0.5,0.3,0.5c0.2,0,0.3-0.1,0.3-0.4v-3.4c0,0,0,0,0,0c0-0.1,0-0.2,0-0.3V67v0v-0.9
		c0-0.5-0.1-0.7-0.3-0.7c-0.2,0-0.3,0.1-0.3,0.4c0,0.8,0,0.2,0,0.4c0,0.2-0.1,0.3-0.2,0.3c-0.4,0-1.4-0.7-2.9-2
		c-3.4-3-4.2-3.6-4.6-4.1l6.5,0c0.6,0,0.9,0.1,1,0.2c0.1,0.1,0.2,0.6,0.2,1.4c0,0.5,0.1,0.7,0.2,0.7c0.2,0,0.3-0.1,0.3-0.3
		c0-0.3,0-0.5,0-0.7v-1.2l0,0h0.6v-0.8c0.3,0.3,0.7,0.5,1.2,0.5c1,0,1.8-0.8,1.8-1.8C763.1,57.3,762.3,56.5,761.3,56.5z"/>
</g>
</svg>
